<?xml version="1.0" encoding="UTF-8"?>
<svg width="616px" height="30px" viewBox="0 0 616 30" version="1.1" xmlns="http://www.w3.org/2000/svg" xmlns:xlink="http://www.w3.org/1999/xlink">
    <title>devmon-hero</title>
    <g id="Page-1" stroke="none" stroke-width="1" fill="none" fill-rule="evenodd">
        <line x1="209.5" y1="28.5" x2="406.5" y2="28.5" id="Line-4" stroke="#00A8BB" stroke-linecap="square"></line>
        <line x1="1" y1="29" x2="198" y2="29" id="Line-4" stroke="#00A8BB" stroke-linecap="square"></line>
        <line x1="418" y1="28" x2="615" y2="28" id="Line-4" stroke="#00A8BB" stroke-linecap="square"></line>
        <g id="Imagine" transform="translate(58.2383, 4.8203)" fill="#00A8BB" fill-rule="nonzero">
            <polygon id="Path" points="0 17.1796875 0 0 2.2734375 0 2.2734375 17.1796875"></polygon>
            <path d="M6.01171875,17.1796875 L6.01171875,4.734375 L7.8984375,4.734375 L7.8984375,6.48046875 C8.2890625,5.87109375 8.80859375,5.38085938 9.45703125,5.00976562 C10.1054688,4.63867188 10.84375,4.453125 11.671875,4.453125 C12.59375,4.453125 13.3496094,4.64453125 13.9394531,5.02734375 C14.5292969,5.41015625 14.9453125,5.9453125 15.1875,6.6328125 C16.171875,5.1796875 17.453125,4.453125 19.03125,4.453125 C20.265625,4.453125 21.2148438,4.79492188 21.8789062,5.47851562 C22.5429688,6.16210938 22.875,7.21484375 22.875,8.63671875 L22.875,17.1796875 L20.7773438,17.1796875 L20.7773438,9.33984375 C20.7773438,8.49609375 20.7089844,7.88867188 20.5722656,7.51757812 C20.4355469,7.14648438 20.1875,6.84765625 19.828125,6.62109375 C19.46875,6.39453125 19.046875,6.28125 18.5625,6.28125 C17.6875,6.28125 16.9609375,6.57226562 16.3828125,7.15429688 C15.8046875,7.73632812 15.515625,8.66796875 15.515625,9.94921875 L15.515625,17.1796875 L13.40625,17.1796875 L13.40625,9.09375 C13.40625,8.15625 13.234375,7.453125 12.890625,6.984375 C12.546875,6.515625 11.984375,6.28125 11.203125,6.28125 C10.609375,6.28125 10.0605469,6.4375 9.55664062,6.75 C9.05273438,7.0625 8.6875,7.51953125 8.4609375,8.12109375 C8.234375,8.72265625 8.12109375,9.58984375 8.12109375,10.7226562 L8.12109375,17.1796875 L6.01171875,17.1796875 Z" id="Path"></path>
            <path d="M34.125,15.6445312 C33.34375,16.3085938 32.5917969,16.7773438 31.8691406,17.0507812 C31.1464844,17.3242188 30.3710938,17.4609375 29.5429688,17.4609375 C28.1757812,17.4609375 27.125,17.1269531 26.390625,16.4589844 C25.65625,15.7910156 25.2890625,14.9375 25.2890625,13.8984375 C25.2890625,13.2890625 25.4277344,12.7324219 25.7050781,12.2285156 C25.9824219,11.7246094 26.3457031,11.3203125 26.7949219,11.015625 C27.2441406,10.7109375 27.75,10.4804688 28.3125,10.3242188 C28.7265625,10.2148438 29.3515625,10.109375 30.1875,10.0078125 C31.890625,9.8046875 33.1445312,9.5625 33.9492188,9.28125 C33.9570312,8.9921875 33.9609375,8.80859375 33.9609375,8.73046875 C33.9609375,7.87109375 33.7617188,7.265625 33.3632812,6.9140625 C32.8242188,6.4375 32.0234375,6.19921875 30.9609375,6.19921875 C29.96875,6.19921875 29.2363281,6.37304688 28.7636719,6.72070312 C28.2910156,7.06835938 27.9414062,7.68359375 27.7148438,8.56640625 L25.6523438,8.28515625 C25.8398438,7.40234375 26.1484375,6.68945312 26.578125,6.14648438 C27.0078125,5.60351562 27.6289062,5.18554688 28.4414062,4.89257812 C29.2539062,4.59960938 30.1953125,4.453125 31.265625,4.453125 C32.328125,4.453125 33.1914062,4.578125 33.8554688,4.828125 C34.5195312,5.078125 35.0078125,5.39257812 35.3203125,5.77148438 C35.6328125,6.15039062 35.8515625,6.62890625 35.9765625,7.20703125 C36.046875,7.56640625 36.0820312,8.21484375 36.0820312,9.15234375 L36.0820312,11.9648438 C36.0820312,13.9257812 36.1269531,15.1660156 36.2167969,15.6855469 C36.3066406,16.2050781 36.484375,16.703125 36.75,17.1796875 L34.546875,17.1796875 C34.328125,16.7421875 34.1875,16.2304688 34.125,15.6445312 Z M33.9492188,10.9335938 C33.1835938,11.2460938 32.0351562,11.5117188 30.5039062,11.7304688 C29.6367188,11.8554688 29.0234375,11.9960938 28.6640625,12.1523438 C28.3046875,12.3085938 28.0273438,12.5371094 27.8320312,12.8378906 C27.6367188,13.1386719 27.5390625,13.4726562 27.5390625,13.8398438 C27.5390625,14.4023438 27.7519531,14.8710938 28.1777344,15.2460938 C28.6035156,15.6210938 29.2265625,15.8085938 30.046875,15.8085938 C30.859375,15.8085938 31.5820312,15.6308594 32.2148438,15.2753906 C32.8476562,14.9199219 33.3125,14.4335938 33.609375,13.8164062 C33.8359375,13.3398438 33.9492188,12.6367188 33.9492188,11.7070312 L33.9492188,10.9335938 Z" id="Shape"></path>
            <path d="M38.9648438,18.2109375 L41.015625,18.515625 C41.1015625,19.1484375 41.3398438,19.609375 41.7304688,19.8984375 C42.2539062,20.2890625 42.96875,20.484375 43.875,20.484375 C44.8515625,20.484375 45.6054688,20.2890625 46.1367188,19.8984375 C46.6679688,19.5078125 47.0273438,18.9609375 47.2148438,18.2578125 C47.3242188,17.828125 47.375,16.9257812 47.3671875,15.5507812 C46.4453125,16.6367188 45.296875,17.1796875 43.921875,17.1796875 C42.2109375,17.1796875 40.8867188,16.5625 39.9492188,15.328125 C39.0117188,14.09375 38.5429688,12.6132812 38.5429688,10.8867188 C38.5429688,9.69921875 38.7578125,8.60351562 39.1875,7.59960938 C39.6171875,6.59570312 40.2402344,5.8203125 41.0566406,5.2734375 C41.8730469,4.7265625 42.8320312,4.453125 43.9335938,4.453125 C45.4023438,4.453125 46.6132812,5.046875 47.5664062,6.234375 L47.5664062,4.734375 L49.5117188,4.734375 L49.5117188,15.4921875 C49.5117188,17.4296875 49.3144531,18.8027344 48.9199219,19.6113281 C48.5253906,20.4199219 47.9003906,21.0585938 47.0449219,21.5273438 C46.1894531,21.9960938 45.1367188,22.2304688 43.8867188,22.2304688 C42.4023438,22.2304688 41.203125,21.8964844 40.2890625,21.2285156 C39.375,20.5605469 38.9335938,19.5546875 38.9648438,18.2109375 Z M40.7109375,10.734375 C40.7109375,12.3671875 41.0351562,13.5585938 41.6835938,14.3085938 C42.3320312,15.0585938 43.1445312,15.4335938 44.1210938,15.4335938 C45.0898438,15.4335938 45.9023438,15.0605469 46.5585938,14.3144531 C47.2148438,13.5683594 47.5429688,12.3984375 47.5429688,10.8046875 C47.5429688,9.28125 47.2050781,8.1328125 46.5292969,7.359375 C45.8535156,6.5859375 45.0390625,6.19921875 44.0859375,6.19921875 C43.1484375,6.19921875 42.3515625,6.58007812 41.6953125,7.34179688 C41.0390625,8.10351562 40.7109375,9.234375 40.7109375,10.734375 Z" id="Shape"></path>
            <path d="M52.7109375,2.42578125 L52.7109375,0 L54.8203125,0 L54.8203125,2.42578125 L52.7109375,2.42578125 Z M52.7109375,17.1796875 L52.7109375,4.734375 L54.8203125,4.734375 L54.8203125,17.1796875 L52.7109375,17.1796875 Z" id="Shape"></path>
            <path d="M58.03125,17.1796875 L58.03125,4.734375 L59.9296875,4.734375 L59.9296875,6.50390625 C60.84375,5.13671875 62.1640625,4.453125 63.890625,4.453125 C64.640625,4.453125 65.3300781,4.58789062 65.9589844,4.85742188 C66.5878906,5.12695312 67.0585938,5.48046875 67.3710938,5.91796875 C67.6835938,6.35546875 67.9023438,6.875 68.0273438,7.4765625 C68.1054688,7.8671875 68.1445312,8.55078125 68.1445312,9.52734375 L68.1445312,17.1796875 L66.0351562,17.1796875 L66.0351562,9.609375 C66.0351562,8.75 65.953125,8.10742188 65.7890625,7.68164062 C65.625,7.25585938 65.3339844,6.91601562 64.9160156,6.66210938 C64.4980469,6.40820312 64.0078125,6.28125 63.4453125,6.28125 C62.546875,6.28125 61.7714844,6.56640625 61.1191406,7.13671875 C60.4667969,7.70703125 60.140625,8.7890625 60.140625,10.3828125 L60.140625,17.1796875 L58.03125,17.1796875 Z" id="Path"></path>
            <path d="M79.8984375,13.171875 L82.078125,13.4414062 C81.734375,14.7148438 81.0976562,15.703125 80.1679688,16.40625 C79.2382812,17.109375 78.0507812,17.4609375 76.6054688,17.4609375 C74.7851562,17.4609375 73.3417969,16.9003906 72.2753906,15.7792969 C71.2089844,14.6582031 70.6757812,13.0859375 70.6757812,11.0625 C70.6757812,8.96875 71.2148438,7.34375 72.2929688,6.1875 C73.3710938,5.03125 74.7695312,4.453125 76.4882812,4.453125 C78.1523438,4.453125 79.5117188,5.01953125 80.5664062,6.15234375 C81.6210938,7.28515625 82.1484375,8.87890625 82.1484375,10.9335938 C82.1484375,11.0585938 82.1445312,11.2460938 82.1367188,11.4960938 L72.8554688,11.4960938 C72.9335938,12.8632812 73.3203125,13.9101562 74.015625,14.6367188 C74.7109375,15.3632812 75.578125,15.7265625 76.6171875,15.7265625 C77.390625,15.7265625 78.0507812,15.5234375 78.5976562,15.1171875 C79.1445312,14.7109375 79.578125,14.0625 79.8984375,13.171875 Z M72.9726562,9.76171875 L79.921875,9.76171875 C79.828125,8.71484375 79.5625,7.9296875 79.125,7.40625 C78.453125,6.59375 77.5820312,6.1875 76.5117188,6.1875 C75.5429688,6.1875 74.7285156,6.51171875 74.0683594,7.16015625 C73.4082031,7.80859375 73.0429688,8.67578125 72.9726562,9.76171875 Z" id="Shape"></path>
        </g>
        <g id="Develop" transform="translate(264.8516, 4.8203)" fill="#00A8BB" fill-rule="nonzero">
            <path d="M0,17.1796875 L0,0 L5.91796875,0 C7.25390625,0 8.2734375,0.08203125 8.9765625,0.24609375 C9.9609375,0.47265625 10.8007812,0.8828125 11.4960938,1.4765625 C12.4023438,2.2421875 13.0800781,3.22070312 13.5292969,4.41210938 C13.9785156,5.60351562 14.203125,6.96484375 14.203125,8.49609375 C14.203125,9.80078125 14.0507812,10.9570312 13.7460938,11.9648438 C13.4414062,12.9726562 13.0507812,13.8066406 12.5742188,14.4667969 C12.0976562,15.1269531 11.5761719,15.6464844 11.0097656,16.0253906 C10.4433594,16.4042969 9.75976562,16.6914062 8.95898438,16.8867188 C8.15820312,17.0820312 7.23828125,17.1796875 6.19921875,17.1796875 L0,17.1796875 Z M2.2734375,15.1523438 L5.94140625,15.1523438 C7.07421875,15.1523438 7.96289062,15.046875 8.60742188,14.8359375 C9.25195312,14.625 9.765625,14.328125 10.1484375,13.9453125 C10.6875,13.40625 11.1074219,12.6816406 11.4082031,11.7714844 C11.7089844,10.8613281 11.859375,9.7578125 11.859375,8.4609375 C11.859375,6.6640625 11.5644531,5.28320312 10.9746094,4.31835938 C10.3847656,3.35351562 9.66796875,2.70703125 8.82421875,2.37890625 C8.21484375,2.14453125 7.234375,2.02734375 5.8828125,2.02734375 L2.2734375,2.02734375 L2.2734375,15.1523438 Z" id="Shape"></path>
            <path d="M25.5820312,13.171875 L27.7617188,13.4414062 C27.4179688,14.7148438 26.78125,15.703125 25.8515625,16.40625 C24.921875,17.109375 23.734375,17.4609375 22.2890625,17.4609375 C20.46875,17.4609375 19.0253906,16.9003906 17.9589844,15.7792969 C16.8925781,14.6582031 16.359375,13.0859375 16.359375,11.0625 C16.359375,8.96875 16.8984375,7.34375 17.9765625,6.1875 C19.0546875,5.03125 20.453125,4.453125 22.171875,4.453125 C23.8359375,4.453125 25.1953125,5.01953125 26.25,6.15234375 C27.3046875,7.28515625 27.8320312,8.87890625 27.8320312,10.9335938 C27.8320312,11.0585938 27.828125,11.2460938 27.8203125,11.4960938 L18.5390625,11.4960938 C18.6171875,12.8632812 19.0039062,13.9101562 19.6992188,14.6367188 C20.3945312,15.3632812 21.2617188,15.7265625 22.3007812,15.7265625 C23.0742188,15.7265625 23.734375,15.5234375 24.28125,15.1171875 C24.828125,14.7109375 25.2617188,14.0625 25.5820312,13.171875 Z M18.65625,9.76171875 L25.6054688,9.76171875 C25.5117188,8.71484375 25.2460938,7.9296875 24.8085938,7.40625 C24.1367188,6.59375 23.265625,6.1875 22.1953125,6.1875 C21.2265625,6.1875 20.4121094,6.51171875 19.7519531,7.16015625 C19.0917969,7.80859375 18.7265625,8.67578125 18.65625,9.76171875 Z" id="Shape"></path>
            <path d="M33.8671875,17.1796875 L29.1328125,4.734375 L31.359375,4.734375 L34.03125,12.1875 C34.3203125,12.9921875 34.5859375,13.828125 34.828125,14.6953125 C35.015625,14.0390625 35.2773438,13.25 35.6132812,12.328125 L38.3789062,4.734375 L40.546875,4.734375 L35.8359375,17.1796875 L33.8671875,17.1796875 Z" id="Path"></path>
            <path d="M50.9296875,13.171875 L53.109375,13.4414062 C52.765625,14.7148438 52.1289062,15.703125 51.1992188,16.40625 C50.2695312,17.109375 49.0820312,17.4609375 47.6367188,17.4609375 C45.8164062,17.4609375 44.3730469,16.9003906 43.3066406,15.7792969 C42.2402344,14.6582031 41.7070312,13.0859375 41.7070312,11.0625 C41.7070312,8.96875 42.2460938,7.34375 43.3242188,6.1875 C44.4023438,5.03125 45.8007812,4.453125 47.5195312,4.453125 C49.1835938,4.453125 50.5429688,5.01953125 51.5976562,6.15234375 C52.6523438,7.28515625 53.1796875,8.87890625 53.1796875,10.9335938 C53.1796875,11.0585938 53.1757812,11.2460938 53.1679688,11.4960938 L43.8867188,11.4960938 C43.9648438,12.8632812 44.3515625,13.9101562 45.046875,14.6367188 C45.7421875,15.3632812 46.609375,15.7265625 47.6484375,15.7265625 C48.421875,15.7265625 49.0820312,15.5234375 49.6289062,15.1171875 C50.1757812,14.7109375 50.609375,14.0625 50.9296875,13.171875 Z M44.0039062,9.76171875 L50.953125,9.76171875 C50.859375,8.71484375 50.59375,7.9296875 50.15625,7.40625 C49.484375,6.59375 48.6132812,6.1875 47.5429688,6.1875 C46.5742188,6.1875 45.7597656,6.51171875 45.0996094,7.16015625 C44.4394531,7.80859375 44.0742188,8.67578125 44.0039062,9.76171875 Z" id="Shape"></path>
            <polygon id="Path" points="55.7109375 17.1796875 55.7109375 0 57.8203125 0 57.8203125 17.1796875"></polygon>
            <path d="M60.3046875,10.9570312 C60.3046875,8.65234375 60.9453125,6.9453125 62.2265625,5.8359375 C63.296875,4.9140625 64.6015625,4.453125 66.140625,4.453125 C67.8515625,4.453125 69.25,5.01367188 70.3359375,6.13476562 C71.421875,7.25585938 71.9648438,8.8046875 71.9648438,10.78125 C71.9648438,12.3828125 71.7246094,13.6425781 71.2441406,14.5605469 C70.7636719,15.4785156 70.0644531,16.1914062 69.1464844,16.6992188 C68.2285156,17.2070312 67.2265625,17.4609375 66.140625,17.4609375 C64.3984375,17.4609375 62.9902344,16.9023438 61.9160156,15.7851562 C60.8417969,14.6679688 60.3046875,13.0585938 60.3046875,10.9570312 Z M62.4726562,10.9570312 C62.4726562,12.5507812 62.8203125,13.7441406 63.515625,14.5371094 C64.2109375,15.3300781 65.0859375,15.7265625 66.140625,15.7265625 C67.1875,15.7265625 68.0585938,15.328125 68.7539062,14.53125 C69.4492188,13.734375 69.796875,12.5195312 69.796875,10.8867188 C69.796875,9.34765625 69.4472656,8.18164062 68.7480469,7.38867188 C68.0488281,6.59570312 67.1796875,6.19921875 66.140625,6.19921875 C65.0859375,6.19921875 64.2109375,6.59375 63.515625,7.3828125 C62.8203125,8.171875 62.4726562,9.36328125 62.4726562,10.9570312 Z" id="Shape"></path>
            <path d="M74.4375,21.9492188 L74.4375,4.734375 L76.359375,4.734375 L76.359375,6.3515625 C76.8125,5.71875 77.3242188,5.24414062 77.8945312,4.92773438 C78.4648438,4.61132812 79.15625,4.453125 79.96875,4.453125 C81.03125,4.453125 81.96875,4.7265625 82.78125,5.2734375 C83.59375,5.8203125 84.2070312,6.59179688 84.6210938,7.58789062 C85.0351562,8.58398438 85.2421875,9.67578125 85.2421875,10.8632812 C85.2421875,12.1367188 85.0136719,13.2832031 84.5566406,14.3027344 C84.0996094,15.3222656 83.4355469,16.1035156 82.5644531,16.6464844 C81.6933594,17.1894531 80.7773438,17.4609375 79.8164062,17.4609375 C79.1132812,17.4609375 78.4824219,17.3125 77.9238281,17.015625 C77.3652344,16.71875 76.90625,16.34375 76.546875,15.890625 L76.546875,21.9492188 L74.4375,21.9492188 Z M76.3476562,11.0273438 C76.3476562,12.6289062 76.671875,13.8125 77.3203125,14.578125 C77.96875,15.34375 78.7539062,15.7265625 79.6757812,15.7265625 C80.6132812,15.7265625 81.4160156,15.3300781 82.0839844,14.5371094 C82.7519531,13.7441406 83.0859375,12.515625 83.0859375,10.8515625 C83.0859375,9.265625 82.7597656,8.078125 82.1074219,7.2890625 C81.4550781,6.5 80.6757812,6.10546875 79.7695312,6.10546875 C78.8710938,6.10546875 78.0761719,6.52539062 77.3847656,7.36523438 C76.6933594,8.20507812 76.3476562,9.42578125 76.3476562,11.0273438 Z" id="Shape"></path>
        </g>
        <g id="Maintain" transform="translate(472.7812, 4.8203)" fill="#00A8BB" fill-rule="nonzero">
            <path d="M0,17.1796875 L0,0 L3.421875,0 L7.48828125,12.1640625 C7.86328125,13.296875 8.13671875,14.1445312 8.30859375,14.7070312 C8.50390625,14.0820312 8.80859375,13.1640625 9.22265625,11.953125 L13.3359375,0 L16.3945312,0 L16.3945312,17.1796875 L14.203125,17.1796875 L14.203125,2.80078125 L9.2109375,17.1796875 L7.16015625,17.1796875 L2.19140625,2.5546875 L2.19140625,17.1796875 L0,17.1796875 Z" id="Path"></path>
            <path d="M27.9140625,15.6445312 C27.1328125,16.3085938 26.3808594,16.7773438 25.6582031,17.0507812 C24.9355469,17.3242188 24.1601562,17.4609375 23.3320312,17.4609375 C21.9648438,17.4609375 20.9140625,17.1269531 20.1796875,16.4589844 C19.4453125,15.7910156 19.078125,14.9375 19.078125,13.8984375 C19.078125,13.2890625 19.2167969,12.7324219 19.4941406,12.2285156 C19.7714844,11.7246094 20.1347656,11.3203125 20.5839844,11.015625 C21.0332031,10.7109375 21.5390625,10.4804688 22.1015625,10.3242188 C22.515625,10.2148438 23.140625,10.109375 23.9765625,10.0078125 C25.6796875,9.8046875 26.9335938,9.5625 27.7382812,9.28125 C27.7460938,8.9921875 27.75,8.80859375 27.75,8.73046875 C27.75,7.87109375 27.5507812,7.265625 27.1523438,6.9140625 C26.6132812,6.4375 25.8125,6.19921875 24.75,6.19921875 C23.7578125,6.19921875 23.0253906,6.37304688 22.5527344,6.72070312 C22.0800781,7.06835938 21.7304688,7.68359375 21.5039062,8.56640625 L19.4414062,8.28515625 C19.6289062,7.40234375 19.9375,6.68945312 20.3671875,6.14648438 C20.796875,5.60351562 21.4179688,5.18554688 22.2304688,4.89257812 C23.0429688,4.59960938 23.984375,4.453125 25.0546875,4.453125 C26.1171875,4.453125 26.9804688,4.578125 27.6445312,4.828125 C28.3085938,5.078125 28.796875,5.39257812 29.109375,5.77148438 C29.421875,6.15039062 29.640625,6.62890625 29.765625,7.20703125 C29.8359375,7.56640625 29.8710938,8.21484375 29.8710938,9.15234375 L29.8710938,11.9648438 C29.8710938,13.9257812 29.9160156,15.1660156 30.0058594,15.6855469 C30.0957031,16.2050781 30.2734375,16.703125 30.5390625,17.1796875 L28.3359375,17.1796875 C28.1171875,16.7421875 27.9765625,16.2304688 27.9140625,15.6445312 Z M27.7382812,10.9335938 C26.9726562,11.2460938 25.8242188,11.5117188 24.2929688,11.7304688 C23.4257812,11.8554688 22.8125,11.9960938 22.453125,12.1523438 C22.09375,12.3085938 21.8164062,12.5371094 21.6210938,12.8378906 C21.4257812,13.1386719 21.328125,13.4726562 21.328125,13.8398438 C21.328125,14.4023438 21.5410156,14.8710938 21.9667969,15.2460938 C22.3925781,15.6210938 23.015625,15.8085938 23.8359375,15.8085938 C24.6484375,15.8085938 25.3710938,15.6308594 26.0039062,15.2753906 C26.6367188,14.9199219 27.1015625,14.4335938 27.3984375,13.8164062 C27.625,13.3398438 27.7382812,12.6367188 27.7382812,11.7070312 L27.7382812,10.9335938 Z" id="Shape"></path>
            <path d="M33.1523438,2.42578125 L33.1523438,0 L35.2617188,0 L35.2617188,2.42578125 L33.1523438,2.42578125 Z M33.1523438,17.1796875 L33.1523438,4.734375 L35.2617188,4.734375 L35.2617188,17.1796875 L33.1523438,17.1796875 Z" id="Shape"></path>
            <path d="M38.4726562,17.1796875 L38.4726562,4.734375 L40.3710938,4.734375 L40.3710938,6.50390625 C41.2851562,5.13671875 42.6054688,4.453125 44.3320312,4.453125 C45.0820312,4.453125 45.7714844,4.58789062 46.4003906,4.85742188 C47.0292969,5.12695312 47.5,5.48046875 47.8125,5.91796875 C48.125,6.35546875 48.34375,6.875 48.46875,7.4765625 C48.546875,7.8671875 48.5859375,8.55078125 48.5859375,9.52734375 L48.5859375,17.1796875 L46.4765625,17.1796875 L46.4765625,9.609375 C46.4765625,8.75 46.3945312,8.10742188 46.2304688,7.68164062 C46.0664062,7.25585938 45.7753906,6.91601562 45.3574219,6.66210938 C44.9394531,6.40820312 44.4492188,6.28125 43.8867188,6.28125 C42.9882812,6.28125 42.2128906,6.56640625 41.5605469,7.13671875 C40.9082031,7.70703125 40.5820312,8.7890625 40.5820312,10.3828125 L40.5820312,17.1796875 L38.4726562,17.1796875 Z" id="Path"></path>
            <path d="M56.4257812,15.2929687 L56.7304688,17.15625 C56.1367188,17.28125 55.6054688,17.34375 55.1367188,17.34375 C54.3710938,17.34375 53.7773438,17.2226562 53.3554688,16.9804688 C52.9335938,16.7382812 52.6367188,16.4199219 52.4648438,16.0253906 C52.2929688,15.6308594 52.2070312,14.8007813 52.2070312,13.5351562 L52.2070312,6.375 L50.6601562,6.375 L50.6601562,4.734375 L52.2070312,4.734375 L52.2070312,1.65234375 L54.3046875,0.38671875 L54.3046875,4.734375 L56.4257812,4.734375 L56.4257812,6.375 L54.3046875,6.375 L54.3046875,13.6523438 C54.3046875,14.2539062 54.3417969,14.640625 54.4160156,14.8125 C54.4902344,14.984375 54.6113281,15.1210938 54.7792969,15.2226562 C54.9472656,15.3242188 55.1875,15.375 55.5,15.375 C55.734375,15.375 56.0429688,15.3476562 56.4257812,15.2929687 Z" id="Path"></path>
            <path d="M66.609375,15.6445312 C65.828125,16.3085938 65.0761719,16.7773438 64.3535156,17.0507812 C63.6308594,17.3242188 62.8554688,17.4609375 62.0273438,17.4609375 C60.6601562,17.4609375 59.609375,17.1269531 58.875,16.4589844 C58.140625,15.7910156 57.7734375,14.9375 57.7734375,13.8984375 C57.7734375,13.2890625 57.9121094,12.7324219 58.1894531,12.2285156 C58.4667969,11.7246094 58.8300781,11.3203125 59.2792969,11.015625 C59.7285156,10.7109375 60.234375,10.4804688 60.796875,10.3242188 C61.2109375,10.2148438 61.8359375,10.109375 62.671875,10.0078125 C64.375,9.8046875 65.6289062,9.5625 66.4335938,9.28125 C66.4414062,8.9921875 66.4453125,8.80859375 66.4453125,8.73046875 C66.4453125,7.87109375 66.2460938,7.265625 65.8476562,6.9140625 C65.3085938,6.4375 64.5078125,6.19921875 63.4453125,6.19921875 C62.453125,6.19921875 61.7207031,6.37304688 61.2480469,6.72070312 C60.7753906,7.06835938 60.4257812,7.68359375 60.1992188,8.56640625 L58.1367188,8.28515625 C58.3242188,7.40234375 58.6328125,6.68945312 59.0625,6.14648438 C59.4921875,5.60351562 60.1132812,5.18554688 60.9257812,4.89257812 C61.7382812,4.59960938 62.6796875,4.453125 63.75,4.453125 C64.8125,4.453125 65.6757812,4.578125 66.3398438,4.828125 C67.0039062,5.078125 67.4921875,5.39257812 67.8046875,5.77148438 C68.1171875,6.15039062 68.3359375,6.62890625 68.4609375,7.20703125 C68.53125,7.56640625 68.5664062,8.21484375 68.5664062,9.15234375 L68.5664062,11.9648438 C68.5664062,13.9257812 68.6113281,15.1660156 68.7011719,15.6855469 C68.7910156,16.2050781 68.96875,16.703125 69.234375,17.1796875 L67.03125,17.1796875 C66.8125,16.7421875 66.671875,16.2304688 66.609375,15.6445312 Z M66.4335938,10.9335938 C65.6679688,11.2460938 64.5195312,11.5117188 62.9882812,11.7304688 C62.1210938,11.8554688 61.5078125,11.9960938 61.1484375,12.1523438 C60.7890625,12.3085938 60.5117188,12.5371094 60.3164062,12.8378906 C60.1210938,13.1386719 60.0234375,13.4726562 60.0234375,13.8398438 C60.0234375,14.4023438 60.2363281,14.8710938 60.6621094,15.2460938 C61.0878906,15.6210938 61.7109375,15.8085938 62.53125,15.8085938 C63.34375,15.8085938 64.0664062,15.6308594 64.6992188,15.2753906 C65.3320312,14.9199219 65.796875,14.4335938 66.09375,13.8164062 C66.3203125,13.3398438 66.4335938,12.6367188 66.4335938,11.7070312 L66.4335938,10.9335938 Z" id="Shape"></path>
            <path d="M71.8476562,2.42578125 L71.8476562,0 L73.9570312,0 L73.9570312,2.42578125 L71.8476562,2.42578125 Z M71.8476562,17.1796875 L71.8476562,4.734375 L73.9570312,4.734375 L73.9570312,17.1796875 L71.8476562,17.1796875 Z" id="Shape"></path>
            <path d="M77.1679688,17.1796875 L77.1679688,4.734375 L79.0664062,4.734375 L79.0664062,6.50390625 C79.9804688,5.13671875 81.3007812,4.453125 83.0273438,4.453125 C83.7773438,4.453125 84.4667969,4.58789062 85.0957031,4.85742188 C85.7246094,5.12695312 86.1953125,5.48046875 86.5078125,5.91796875 C86.8203125,6.35546875 87.0390625,6.875 87.1640625,7.4765625 C87.2421875,7.8671875 87.28125,8.55078125 87.28125,9.52734375 L87.28125,17.1796875 L85.171875,17.1796875 L85.171875,9.609375 C85.171875,8.75 85.0898438,8.10742188 84.9257812,7.68164062 C84.7617188,7.25585938 84.4707031,6.91601562 84.0527344,6.66210938 C83.6347656,6.40820312 83.1445312,6.28125 82.5820312,6.28125 C81.6835938,6.28125 80.9082031,6.56640625 80.2558594,7.13671875 C79.6035156,7.70703125 79.2773438,8.7890625 79.2773438,10.3828125 L79.2773438,17.1796875 L77.1679688,17.1796875 Z" id="Path"></path>
        </g>
    </g>
</svg>